<?xml version="1.0" standalone="no"?>
<!DOCTYPE svg PUBLIC "-//W3C//DTD SVG 20010904//EN"
 "http://www.w3.org/TR/2001/REC-SVG-20010904/DTD/svg10.dtd">
<svg version="1.0" xmlns="http://www.w3.org/2000/svg"
 width="960.000000pt" height="960.000000pt" viewBox="0 0 960.000000 960.000000"
 preserveAspectRatio="xMidYMid meet">
<metadata>
Created by potrace 1.11, written by Peter Selinger 2001-2013
</metadata>
<g transform="translate(0.000000,960.000000) scale(0.100000,-0.100000)"
fill="#000000" stroke="none">
<path d="M1775 6639 c-60 -10 -136 -25 -168 -34 -32 -9 -66 -18 -75 -20 -35
-7 -182 -65 -267 -105 -178 -84 -357 -213 -508 -365 -86 -87 -210 -245 -252
-320 -15 -27 -31 -55 -37 -62 -14 -17 -108 -211 -108 -223 0 -6 -4 -18 -9 -28
-32 -57 -95 -291 -106 -391 -3 -30 -8 -58 -11 -63 -3 -5 -7 -84 -8 -176 -3
-151 3 -252 18 -338 3 -17 8 -46 10 -65 19 -143 120 -420 209 -574 51 -88 77
-128 130 -199 290 -386 709 -641 1174 -716 145 -23 408 -27 518 -6 17 3 57 9
91 15 33 5 78 14 100 20 21 6 41 10 44 10 16 -1 227 79 299 113 131 62 332
192 411 267 9 9 29 27 44 41 l28 25 1496 0 1497 0 35 -30 c19 -16 40 -35 45
-41 18 -19 138 -109 200 -148 185 -121 482 -237 662 -260 22 -3 52 -8 65 -11
89 -22 382 -19 533 5 652 108 1204 569 1428 1195 37 102 73 235 83 302 3 21 7
44 10 52 9 26 18 186 18 301 0 154 -13 273 -40 385 -8 33 -16 71 -19 84 -11
56 -71 223 -115 316 -267 571 -776 952 -1403 1049 -72 11 -601 13 -3000 13
-2729 -1 -2919 -2 -3022 -18z"/>
</g>
</svg>
